<?xml version="1.0" encoding="UTF-8"?>
<svg id="Layer_1" data-name="Layer 1" xmlns="http://www.w3.org/2000/svg" viewBox="0 0 592 248">
  <defs>
    <style>
      .cls-1 {
        fill: #414042;
      }

      .cls-1, .cls-2 {
        stroke-width: 0px;
      }

      .cls-2 {
        fill: #e7671e;
      }
    </style>
  </defs>
  <path class="cls-1" d="m6.73,188.98h9.56c5.76,0,9.56,3.06,9.56,8.1v.07c0,5.51-4.6,8.35-10.04,8.35h-6.2v9.01h-2.88v-25.54Zm9.19,13.9c4.23,0,7.01-2.26,7.01-5.62v-.07c0-3.65-2.74-5.55-6.86-5.55h-6.46v11.24h6.31Z"/>
  <path class="cls-1" d="m38.35,188.55h10.98c3.14,0,5.66.97,7.26,2.6,1.24,1.26,1.97,3.08,1.97,5.12v.07c0,4.3-2.92,6.83-6.93,7.57l7.85,10.62h-3.54l-7.41-10.1h-7.3v10.1h-2.88v-25.98Zm10.73,13.25c3.83,0,6.57-2,6.57-5.34v-.08c0-3.19-2.41-5.12-6.53-5.12h-7.88v10.54h7.84Z"/>
  <path class="cls-1" d="m71.05,201.64v-.07c0-6.94,5.29-13.02,13.07-13.02s12.99,6.01,12.99,12.95v.07c0,6.94-5.29,13.02-13.06,13.02s-12.99-6.01-12.99-12.95m23.06,0v-.07c0-5.72-4.23-10.39-10.07-10.39s-10,4.6-10,10.32v.07c0,5.72,4.23,10.4,10.07,10.4s9.99-4.6,9.99-10.32"/>
  <path class="cls-1" d="m109.6,188.55h8.87c8.02,0,13.57,5.6,13.57,12.91v.07c0,7.31-5.55,12.99-13.57,12.99h-8.87v-25.98Zm8.87,23.27c6.46,0,10.58-4.46,10.58-10.21v-.08c0-5.75-4.12-10.28-10.58-10.28h-5.99v20.56h5.99Z"/>
  <path class="cls-1" d="m144.53,203.64v-14.65h2.88v14.48c0,5.43,2.92,8.49,7.81,8.49s7.7-2.8,7.7-8.32v-14.65h2.88v14.44c0,7.35-4.27,11.16-10.66,11.16s-10.62-3.82-10.62-10.95"/>
  <path class="cls-1" d="m178.3,201.64v-.07c0-7.12,5.4-13.02,12.91-13.02,4.64,0,7.41,1.62,9.97,3.99l-1.97,2.09c-2.15-2.02-4.56-3.45-8.02-3.45-5.66,0-9.89,4.53-9.89,10.32v.07c0,5.83,4.27,10.4,9.89,10.4,3.5,0,5.8-1.33,8.24-3.63l1.9,1.83c-2.66,2.66-5.58,4.42-10.22,4.42-7.37,0-12.8-5.72-12.8-12.95"/>
  <polygon class="cls-1" points="222.39 191.25 213.82 191.25 213.82 188.55 233.88 188.55 233.88 191.25 225.31 191.25 225.31 214.52 222.39 214.52 222.39 191.25"/>
  <rect class="cls-1" x="246.38" y="188.55" width="2.88" height="25.98"/>
  <path class="cls-1" d="m261.76,201.64v-.07c0-6.94,5.29-13.02,13.06-13.02s12.99,6.01,12.99,12.95v.07c0,6.94-5.29,13.02-13.07,13.02s-12.99-6.01-12.99-12.95m23.06,0v-.07c0-5.72-4.23-10.39-10.07-10.39s-9.99,4.6-9.99,10.32v.07c0,5.72,4.23,10.4,10.07,10.4s10-4.6,10-10.32"/>
  <polygon class="cls-1" points="300.31 188.55 303 188.55 319.09 209.36 319.09 188.55 321.9 188.55 321.9 214.52 319.61 214.52 303.11 193.22 303.11 214.52 300.31 214.52 300.31 188.55"/>
  <path class="cls-1" d="m333.4,210.55l1.79-2.09c2.66,2.38,5.22,3.57,8.76,3.57s5.69-1.81,5.69-4.29v-.07c0-2.34-1.28-3.68-6.64-4.8-5.87-1.26-8.58-3.14-8.58-7.29v-.07c0-3.97,3.54-6.89,8.39-6.89,3.72,0,6.39,1.05,8.97,3.1l-1.68,2.2c-2.37-1.91-4.74-2.74-7.37-2.74-3.32,0-5.43,1.8-5.43,4.08v.07c0,2.38,1.31,3.71,6.93,4.9,5.69,1.23,8.32,3.28,8.32,7.14v.07c0,4.33-3.65,7.14-8.72,7.14-4.05,0-7.37-1.33-10.43-4.04"/>
  <path class="cls-2" d="m53.9,164.1c-22.75-.24-47.16-13.15-47.16-40.92v-47.96c0-27.77,24.42-40.67,47.1-40.92,22.66.24,47,13.15,47,40.92v47.96c0,27.77-24.3,40.67-46.88,40.92h-.06Zm0-110.65c-13.03,0-28.24,5.7-28.24,21.77v47.96c0,15.19,14.18,22,28.24,22s28.01-6.8,28.01-22v-47.96c0-15.04-14.07-21.77-28.01-21.77"/>
  <path class="cls-2" d="m114.08,162.32v-86.65c0-20.06,13.72-35.73,34.96-39.92,2.62-.55,5.17-.8,8.03-.8,2.51,0,4.92.2,7.48.42l5.94.5v18.78l-5.94-.54c-1.96-.18-4.07-.35-6.13-.35-2.35,0-4.4.22-6.45.68-11.87,2.75-18.96,10.69-18.96,21.24v86.65h-18.92Z"/>
  <path class="cls-2" d="m216.38,164.34c-.8,0-1.6,0-2.4-.02-25.2-.26-43.5-18.41-43.5-43.15.22-25.27,19.17-41.58,48.28-41.58,9.3,0,18.54,1.39,26.9,4.04v-9.97c0-15.39-14.82-20.88-28.69-20.88-9.89,0-17.63,3.06-25.09,9.94l-3.84,3.55-3.69-3.7c-1.07-1.07-1.95-2.11-2.73-3.03-.69-.82-1.35-1.59-1.87-2.05l-4.35-3.73,3.96-4.15c9.69-10.15,22.8-15.29,38.96-15.29,22.29,0,46.27,12.31,46.27,39.35v82.69l-3.75,1.23c-13.66,4.48-28.61,6.76-44.44,6.76h0Zm1.93-66.49c-19.17,0-28.97,7.87-29.13,23.39,0,15.48,9.58,24.86,25.63,25.06.83.02,1.63.03,2.43.03,9.51,0,19.3-1.07,28.42-3.11v-40.34c-9.09-3.16-19.21-5.03-27.35-5.03"/>
  <path class="cls-2" d="m352.55,162.32v-88.21c0-14.89-13.62-21.55-27.13-21.55-10.81,0-21.64,2.48-28.68,4.97v104.79h-18.92V43.47l3.65-1.27c10.77-3.77,27.04-8.78,43.96-8.78,22.2.48,46.05,13.42,46.05,40.69v88.21h-18.92Z"/>
  <path class="cls-2" d="m431.65,214.58c-15.4,0-29.52-4.93-38.76-13.53l-4.1-3.82,12.32-12.11,3.78,2.94c6.72,5.21,16.8,8.32,26.98,8.32,13.22,0,27.35-5.4,27.35-20.54v-19.3c-9.34,3.55-18.46,5.28-27.79,5.28h-.53c-11.86,0-23.01-3.53-31.42-9.95-9.66-7.39-14.77-17.73-14.77-29.9v-48.94c0-26.89,23.72-39.39,45.76-39.63,16.54,0,28.56,3.57,43.73,8.62l3.71,1.24v132.35c0,26.92-23.24,38.97-46.27,38.97m-1.11-162.7c-8.98,0-16.9,2.76-21.72,7.56-3.51,3.49-5.25,7.97-5.18,13.31v49.23c-.19,15.25,14.69,21.05,27.49,21.39,10.38-.19,17.79-2.26,28.1-6.26V56.77c-7.04-2.45-17.87-4.89-28.69-4.89"/>
  <path class="cls-2" d="m538.33,163.66c-32.4,0-47.16-21.09-47.16-40.69v-47.29c0-19.6,14.76-40.69,47.16-40.69,23.32,0,46.94,13.98,46.94,40.69v34.45h-74.96v12.85c-.07,5.61,1.67,10.23,5.15,13.76,4.89,4.95,13.22,7.78,22.87,7.78,11.78,0,21.36-4.4,25.62-11.78l2.6-4.49,16.88,8.7-2.61,4.87c-7.31,13.67-23.2,21.84-42.5,21.84m28.02-71.79v-16.64c0-14.89-14.07-21.55-28.02-21.55-9.52,0-17.84,2.89-22.83,7.94-3.51,3.55-5.26,8.11-5.19,13.55v16.7h56.04Z"/>
</svg>